<?xml version="1.0" encoding="utf-8"?>
<!-- Generator: Adobe Illustrator 27.2.0, SVG Export Plug-In . SVG Version: 6.00 Build 0)  -->
<svg version="1.1" id="Ebene_1" xmlns="http://www.w3.org/2000/svg" xmlns:xlink="http://www.w3.org/1999/xlink" x="0px" y="0px"
	 viewBox="0 0 144.7 107.7" style="enable-background:new 0 0 144.7 107.7;" xml:space="preserve">
<style type="text/css">
	.st0{fill:#003594;}
	.st1{fill:#A2AAAD;}
</style>
<path class="st0" d="M77,102.2V89.4c11.6,5.2,21.2,7.7,29,7.7c4.1,0,7.8-0.7,11.1-2c3.4-1.3,6.1-3.6,8-6.7c2-3.2,3-10,3-20.3V12
	h-27.8V0h44.2v68.4c0,11.1-1.9,19.1-4.9,24c-3,4.9-7.2,8.7-12.6,11.3c-5.4,2.6-12.3,3.9-20.8,3.9C97,107.7,87.1,105.9,77,102.2"/>
<path class="st0" d="M33,23.8h12.7l9.8,36.7l12.1-36.7h10.8l12.3,36.7l9.7-36.7h12.7L97.9,81.3H85.5L73,44.2L60.7,81.3H48.4L33,23.8
	"/>
<path class="st1" d="M0,0h45v11.9H16.5v77.5H45v12.8H0V0"/>
</svg>
